<svg width="80" height="256" viewBox="0 -10 60 40" fill="none" xmlns="http://www.w3.org/2000/svg">
<path d="M0 0.705426H10.0818V5.84496C11.2187 3.86305 12.5061 2.40181 13.9439 1.46124C15.4153 0.48708 17.1541 0 19.1604 0C21.1333 0 22.8387 0.503876 24.2765 1.51163C25.7478 2.48579 26.8513 3.81266 27.5869 5.49225C29.727 1.83075 32.8368 0 36.9164 0C38.8558 0 40.5445 0.520672 41.9823 1.56201C43.4536 2.60336 44.5905 4.11499 45.3931 6.0969C46.1956 8.04522 46.5969 10.3463 46.5969 13V25.5969H36.0135V13C36.0135 11.2868 35.7126 9.99354 35.1107 9.12015C34.5422 8.24677 33.7397 7.81008 32.7031 7.81008C31.5662 7.81008 30.5797 8.29716 29.7437 9.27132C28.9412 10.2455 28.54 11.4212 28.54 12.7984V25.5969H18.0569V13C18.0569 11.2868 17.756 9.99354 17.1541 9.12015C16.5856 8.24677 15.7664 7.81008 14.6963 7.81008C13.5594 7.81008 12.5897 8.29716 11.7872 9.27132C10.9846 10.2455 10.5834 11.4212 10.5834 12.7984V25.5969H0V0.705426Z" fill="white"/>
</svg>